<?xml version="1.0" ?><svg height="60px" version="1.1" viewBox="0 0 60 60" width="60px" xmlns="http://www.w3.org/2000/svg" xmlns:xlink="http://www.w3.org/1999/xlink"><title/><desc/><defs/><g fill="none" fill-rule="evenodd" id="Page-1" stroke="none" stroke-width="1"><g id="Social_icons" transform="translate(-522.000000, -1755.000000)"><g id="Mail" transform="translate(522.000000, 1755.000000)"><circle cx="30" cy="30" fill="#212129" id="Oval" r="30"/><path d="M30.418,28.31628 C28.0744,28.31628 16,21.4692 16,21.4692 L16,20.4 C16,19.0752 17.0752,18 18.4024,18 L42.4336,18 C43.762,18 44.8372,19.0752 44.8372,20.4 L44.818,21.6 C44.818,21.6 32.8744,28.31628 30.418,28.31628 Z M30.418,31.61628 C32.9872,31.61628 44.818,25.2 44.818,25.2 L44.8372,39.6 C44.8372,40.9248 43.762,42 42.4336,42 L18.4024,42 C17.0764,42 16,40.9248 16,39.6 L16.0192,25.2 C16.018,25.2 28.0744,31.61628 30.418,31.61628 Z" fill="#FFFFFF" id="Shape"/></g></g></g></svg>