<?xml version="1.0" ?><svg height="60px" version="1.1" viewBox="0 0 60 60" width="60px" xmlns="http://www.w3.org/2000/svg" xmlns:xlink="http://www.w3.org/1999/xlink"><title/><desc/><defs/><g fill="none" fill-rule="evenodd" id="Page-1" stroke="none" stroke-width="1"><g id="Social_icons" transform="translate(-422.000000, -452.000000)"><g id="VK" transform="translate(422.000000, 452.000000)"><path d="M0,30 C0,13.4314567 13.4314567,0 30,0 C46.5685433,0 60,13.4314567 60,30 C60,46.5685433 46.5685433,60 30,60 C13.4314567,60 0,46.5685433 0,30 Z" fill="#212129" id="back"/><path d="M31.569328,39.8451001 C31.569328,39.8451001 32.1468577,39.7821111 32.4426657,39.4702386 C32.7134316,39.1844836 32.7040409,38.6452361 32.7040409,38.6452361 C32.7040409,38.6452361 32.6680431,36.1272115 33.8591003,35.7554227 C35.0329412,35.3897791 36.5401529,38.1904861 38.1397068,39.2674447 C39.3479804,40.081693 40.2651414,39.9034802 40.2651414,39.9034802 L44.5394874,39.8451001 C44.5394874,39.8451001 46.7744805,39.7099042 45.7148934,37.9846195 C45.6272466,37.8432783 45.0966705,36.7079396 42.5376974,34.3758095 C39.8566448,31.9346008 40.2166226,32.3294345 43.4439025,28.1060974 C45.4096948,25.5343017 46.1953856,23.9641852 45.9496616,23.2928144 C45.7164585,22.6506336 44.2702865,22.8211649 44.2702865,22.8211649 L39.459104,22.8503549 C39.459104,22.8503549 39.1022563,22.8027291 38.8377509,22.9578971 C38.5795059,23.1099926 38.4120379,23.464882 38.4120379,23.464882 C38.4120379,23.464882 37.651389,25.4544132 36.6356253,27.1474352 C34.4929744,30.7178373 33.6368531,30.9068044 33.286266,30.6855746 C32.4708378,30.1678356 32.6743036,28.6084733 32.6743036,27.5007883 C32.6743036,24.0394647 33.209575,22.5968625 31.633498,22.2235373 C31.1107475,22.0990956 30.7257277,22.0176708 29.3875491,22.0038439 C27.6706111,21.9869444 26.2181786,22.0099892 25.3949249,22.4048228 C24.8471325,22.6675331 24.4245498,23.2544064 24.6827948,23.2882054 C25.0005144,23.329686 25.7204701,23.4787088 26.1023597,23.9887662 C26.5953729,24.6478465 26.5781565,26.125784 26.5781565,26.125784 C26.5781565,26.125784 26.8614435,30.2000983 25.9161103,30.7055468 C25.2681501,31.0527545 24.3791612,30.3445121 22.4681483,27.1044183 C21.4899475,25.4451953 20.7512103,23.6108321 20.7512103,23.6108321 C20.7512103,23.6108321 20.6087843,23.2682333 20.3536695,23.0838752 C20.0453406,22.8611091 19.6149323,22.7919748 19.6149323,22.7919748 L15.0432133,22.8211649 C15.0432133,22.8211649 14.3561251,22.8396007 14.1041406,23.1330374 C13.8803282,23.392675 14.0869242,23.9319225 14.0869242,23.9319225 C14.0869242,23.9319225 17.6663564,32.1527579 21.7200203,36.2962065 C25.4371832,40.0939836 29.6567499,39.8451001 29.6567499,39.8451001 L31.569328,39.8451001 Z" fill="#FFFFFF" id="Shape"/></g></g></g></svg>